<svg xmlns="http://www.w3.org/2000/svg" viewBox="0 0 1024 1024" width="1024" height="1024">
  <rect width="1024" height="1024" fill="#2C2D30"/>
  <g fill="#D97757">
    <!-- Paper plane -->
    <path d="M214 445
             Q198 438 200 423
             Q202 410 216 404
             L838 184
             Q854 178 864 189
             Q872 198 866 214
             L649 752
             Q643 769 630 771
             Q618 773 609 759
             L503 592
             Q496 580 505 569
             L756 294
             L382 510
             Q373 515 363 511
             Z"/>
    <!-- Motion arc -->
    <path d="M143 777
             Q245 767 326 711
             Q378 675 416 620
             Q423 610 434 613
             Q447 617 445 630
             Q443 637 438 645
             Q396 706 339 745
             Q252 805 147 815
             Q132 816 129 803
             Q126 789 143 777
             Z"/>
  </g>
</svg>
